<?xml version="1.0" encoding="UTF-8" standalone="no"?>
<svg xmlns="http://www.w3.org/2000/svg" viewBox="450 150 650 750" width="32" height="32">
  <defs>
    <linearGradient id="gradNavy" x1="0" y1="1" x2="1" y2="0">
      <stop offset="0" stop-color="#000B38"/>
      <stop offset="1" stop-color="#002A72"/>
    </linearGradient>
    <linearGradient id="gradBlue" x1="0.5" y1="1" x2="0.5" y2="0">
      <stop offset="0" stop-color="#00A0F0"/>
      <stop offset="1" stop-color="#0048B0"/>
    </linearGradient>
    <linearGradient id="gradTurq" x1="0" y1="1" x2="1" y2="0">
      <stop offset="0" stop-color="#00C9BE"/>
      <stop offset="1" stop-color="#009890"/>
    </linearGradient>
  </defs>
  <g transform="translate(0,1024) scale(0.1,-0.1)">
    <path d="M9107 8982 c-10 -10 -17 -30 -17 -44 0 -16 58 -114 151 -259 83 -129 215 -332 292 -453 81 -125 151 -223 163 -228 46 -21 71 -3 143 106 38 57 97 142 130 190 33 47 57 86 54 86 -4 0 0 6 9 13 23 18 151 208 151 223 0 7 3 11 6 9 7 -4 156 211 150 217 -2 1 9 15 24 30 35 35 43 72 23 103 l-16 25 -624 0 c-591 0 -624 -1 -639 -18z" fill="url(#gradTurq)"/>
    <path d="M8675 8719 c-16 -5 -39 -17 -51 -27 -12 -9 -171 -237 -355 -507 -183 -269 -366 -537 -405 -595 -40 -58 -126 -184 -191 -280 -65 -96 -143 -208 -174 -250 -61 -82 -374 -531 -434 -622 -69 -106 -238 -191 -376 -190 -132 0 -256 47 -352 133 l-58 51 29 -48 c27 -47 343 -550 544 -869 52 -82 114 -181 138 -220 57 -92 71 -107 133 -141 l52 -29 305 0 305 0 46 27 c37 22 65 54 133 155 48 70 148 216 221 323 74 107 189 276 256 375 259 380 454 666 746 1093 167 243 308 454 313 468 16 42 11 98 -13 145 -46 87 -610 964 -631 979 -50 37 -119 48 -181 29z" fill="url(#gradBlue)"/>
    <path d="M4875 8735 c-39 -38 -34 -88 16 -166 23 -35 45 -65 50 -67 5 -2 9 -8 9 -14 0 -8 216 -353 415 -663 62 -95 548 -865 700 -1105 53 -85 107 -171 120 -190 12 -19 32 -52 44 -72 33 -56 134 -144 204 -176 189 -89 385 -75 555 38 50 34 75 63 166 197 59 87 166 241 237 343 71 101 129 193 129 204 0 11 -20 49 -44 85 -38 57 -321 502 -648 1016 -90 142 -265 422 -321 511 -16 27 -42 49 -70 63 -43 21 -50 21 -791 21 l-747 0 -24 -25z" fill="url(#gradNavy)"/>
  </g>
</svg>