<?xml version="1.0" encoding="UTF-8" standalone="no"?>
<svg xmlns="http://www.w3.org/2000/svg" viewBox="0 0 1536 1024" width="1536" height="1024">
  <defs>
    <linearGradient id="gradNavy" x1="0" y1="1" x2="1" y2="0">
      <stop offset="0" stop-color="#000B38"/>
      <stop offset="1" stop-color="#002A72"/>
    </linearGradient>
    <linearGradient id="gradBlue" x1="0.5" y1="1" x2="0.5" y2="0">
      <stop offset="0" stop-color="#00A0F0"/>
      <stop offset="1" stop-color="#0048B0"/>
    </linearGradient>
    <linearGradient id="gradTurq" x1="0" y1="1" x2="1" y2="0">
      <stop offset="0" stop-color="#00C9BE"/>
      <stop offset="1" stop-color="#009890"/>
    </linearGradient>
  </defs>
  <rect x="0" y="0" width="1536" height="1024" fill="#FFFFFF"/>
  <g transform="translate(0,1024) scale(0.1,-0.1)">
    <path d="M9107 8982 c-10 -10 -17 -30 -17 -44 0 -16 58 -114 151 -259 83 -129 215 -332 292 -453 81 -125 151 -223 163 -228 46 -21 71 -3 143 106 38 57 97 142 130 190 33 47 57 86 54 86 -4 0 0 6 9 13 23 18 151 208 151 223 0 7 3 11 6 9 7 -4 156 211 150 217 -2 1 9 15 24 30 35 35 43 72 23 103 l-16 25 -624 0 c-591 0 -624 -1 -639 -18z" fill="url(#gradTurq)"/>
    <path d="M8675 8719 c-16 -5 -39 -17 -51 -27 -12 -9 -171 -237 -355 -507 -183 -269 -366 -537 -405 -595 -40 -58 -126 -184 -191 -280 -65 -96 -143 -208 -174 -250 -61 -82 -374 -531 -434 -622 -69 -106 -238 -191 -376 -190 -132 0 -256 47 -352 133 l-58 51 29 -48 c27 -47 343 -550 544 -869 52 -82 114 -181 138 -220 57 -92 71 -107 133 -141 l52 -29 305 0 305 0 46 27 c37 22 65 54 133 155 48 70 148 216 221 323 74 107 189 276 256 375 259 380 454 666 746 1093 167 243 308 454 313 468 16 42 11 98 -13 145 -46 87 -610 964 -631 979 -50 37 -119 48 -181 29z" fill="url(#gradBlue)"/>
    <path d="M4875 8735 c-39 -38 -34 -88 16 -166 23 -35 45 -65 50 -67 5 -2 9 -8 9 -14 0 -8 216 -353 415 -663 62 -95 548 -865 700 -1105 53 -85 107 -171 120 -190 12 -19 32 -52 44 -72 33 -56 134 -144 204 -176 189 -89 385 -75 555 38 50 34 75 63 166 197 59 87 166 241 237 343 71 101 129 193 129 204 0 11 -20 49 -44 85 -38 57 -321 502 -648 1016 -90 142 -265 422 -321 511 -16 27 -42 49 -70 63 -43 21 -50 21 -791 21 l-747 0 -24 -25z" fill="url(#gradNavy)"/>
    <path d="M12290 4670 c-433 -74 -749 -428 -750 -840 0 -408 257 -735 663 -841 116 -31 329 -37 451 -14 97 18 188 46 250 77 l39 20 71 -71 71 -71 191 0 190 0 -150 149 -150 150 32 38 c198 235 254 545 153 840 -99 287 -376 510 -702 563 -73 11 -291 12 -359 0z m315 -285 c91 -19 206 -75 271 -131 63 -53 137 -161 165 -241 26 -72 37 -254 20 -333 -13 -59 -59 -162 -92 -204 l-22 -28 -46 46 c-55 54 -88 60 -256 49 -106 -8 -110 -9 -113 -32 -3 -19 17 -45 99 -127 l102 -102 -74 -24 c-59 -18 -97 -23 -189 -22 -178 0 -302 47 -417 157 -118 113 -171 228 -180 387 -10 179 42 315 167 440 148 148 356 209 565 165z M1949 4553 c32 -60 129 -243 216 -408 87 -165 183 -347 215 -405 31 -58 132 -250 224 -427 l168 -323 162 0 161 0 74 143 c41 78 159 304 264 502 104 198 238 452 297 565 59 113 138 262 175 333 l67 127 -185 0 -185 0 -280 -547 c-154 -302 -302 -592 -328 -646 -27 -53 -53 -96 -57 -94 -9 3 -149 272 -493 945 l-175 342 -189 0 -188 0 57 -107z M4630 3825 l0 -835 155 0 155 0 0 835 0 835 -155 0 -155 0 0 -835z M6387 4353 c-238 -446 -489 -908 -572 -1058 -40 -71 -93 -169 -119 -218 l-48 -87 188 2 188 3 64 120 c65 123 115 219 416 795 96 184 178 336 183 337 4 1 43 -64 86 -145 242 -459 368 -700 469 -894 l113 -217 183 -1 c100 0 182 2 182 5 0 4 -35 72 -79 153 -191 357 -317 591 -420 782 -61 113 -173 323 -248 467 l-138 263 -142 0 -141 0 -165 -307z M8090 4515 l0 -145 325 0 325 0 0 -690 0 -690 165 0 165 0 2 688 3 687 323 0 322 0 0 148 0 147 -815 0 -815 0 0 -145z M10470 3825 l0 -835 160 0 160 0 0 835 0 835 -160 0 -160 0 0 -835z" fill="#001950"/>
    <path d="M6662 3617 c-5 -7 -49 -86 -97 -177 -48 -91 -121 -226 -161 -301 -41 -75 -74 -139 -74 -142 0 -4 165 -7 366 -7 l366 0 -37 68 c-21 37 -40 69 -44 72 -3 3 -7 11 -9 19 -2 8 -58 115 -125 237 -99 181 -127 226 -149 233 -19 7 -30 6 -36 -2z" fill="#00B0A8"/>
    <path d="M1920 2360 c0 -7 180 -10 520 -10 340 0 520 3 520 10 0 7 -180 10 -520 10 -340 0 -520 -3 -520 -10z M12420 2360 c0 -7 178 -10 515 -10 337 0 515 3 515 10 0 7 -178 10 -515 10 -337 0 -515 -3 -515 -10z" fill="#001950"/>
    <path d="M3317 2493 c-4 -3 -7 -62 -7 -130 l0 -123 24 0 c23 0 25 5 28 48 l3 47 42 6 c55 7 83 33 83 75 0 55 -47 84 -135 84 -17 0 -35 -3 -38 -7z m118 -63 c9 -28 -11 -50 -46 -50 -26 0 -29 3 -29 35 0 33 2 35 34 35 26 0 36 -5 41 -20z M3570 2370 l0 -130 81 0 c78 0 80 1 77 23 -3 19 -10 22 -55 25 l-53 3 0 105 0 104 -25 0 -25 0 0 -130z M3869 2453 c-30 -70 -79 -196 -79 -205 0 -5 10 -8 23 -8 16 0 26 9 34 30 10 28 15 30 61 30 47 0 51 -2 61 -30 8 -23 16 -30 36 -30 31 0 33 -10 -28 145 -35 90 -47 111 -65 113 -18 3 -26 -5 -43 -45z m58 -68 c11 -35 11 -35 -19 -35 -25 0 -29 3 -23 18 4 9 10 25 12 35 8 27 19 20 30 -18z M4067 2494 c-4 -4 -7 -16 -7 -26 0 -14 8 -18 35 -18 l35 0 0 -105 0 -105 25 0 25 0 0 104 0 105 38 3 c29 2 37 7 37 23 0 18 -8 20 -90 23 -50 1 -94 0 -98 -4z M4387 2493 c-7 -12 -97 -241 -97 -248 0 -3 11 -5 24 -5 17 0 27 9 36 30 11 28 16 30 62 30 46 0 50 -2 59 -30 8 -22 17 -30 35 -30 13 0 24 6 23 13 0 6 -21 64 -47 127 -38 92 -51 116 -69 118 -11 2 -23 0 -26 -5z m36 -90 c2 -10 8 -25 11 -34 6 -13 0 -18 -24 -18 -24 0 -30 0 -25 10 3 7 8 25 11 38 7 28 20 31 27 7z M4610 2370 c0 -131 0 -131 23 -128 19 3 22 10 25 56 l3 52 50 0 c42 0 49 3 49 20 0 17 -7 20 -50 20 -49 0 -50 1 -50 30 0 30 0 30 56 30 52 0 55 1 52 23 -3 20 -9 22 -80 25 l-78 3 0 -131z M4903 2481 c-83 -52 -84 -177 -3 -225 35 -20 102 -21 141 0 45 23 73 91 60 142 -24 86 -126 129 -198 83z m122 -43 c13 -16 25 -52 25 -75 0 -80 -97 -109 -147 -44 -29 38 -6 113 40 130 18 7 74 -1 82 -11z M5196 2493 c-3 -4 -6 -62 -6 -130 l0 -123 25 0 c23 0 25 3 25 50 0 36 4 50 14 50 8 0 28 -22 46 -50 24 -37 38 -50 56 -50 31 0 30 6 -6 60 -24 36 -27 47 -17 55 18 13 37 49 37 69 0 8 -10 27 -23 42 -20 23 -33 27 -84 30 -33 2 -63 0 -67 -3z m115 -59 c19 -23 -1 -48 -40 -52 -30 -3 -31 -2 -31 32 0 33 2 36 29 36 16 0 34 -7 42 -16z M5467 2493 c-4 -3 -7 -62 -7 -130 l0 -123 25 0 c25 0 25 1 26 88 l0 87 32 -83 c42 -109 58 -109 104 3 l32 80 1 -87 c0 -87 0 -88 25 -88 l25 0 0 124 c0 69 -3 127 -8 129 -4 3 -19 3 -34 0 -23 -4 -32 -17 -59 -86 l-33 -80 -13 29 c-7 16 -24 55 -37 87 -20 47 -29 57 -49 57 -13 0 -27 -3 -30 -7z M5891 2478 c-13 -35 -82 -211 -88 -225 -3 -9 4 -13 21 -13 21 0 29 7 37 30 10 28 14 30 60 30 47 0 51 -2 60 -30 8 -22 17 -30 35 -30 13 0 24 6 24 13 -1 6 -22 64 -48 127 -38 94 -51 116 -69 118 -16 2 -26 -3 -32 -20z m58 -123 c1 -6 -11 -10 -26 -9 -30 2 -31 8 -11 58 l12 29 12 -34 c7 -19 13 -39 13 -44z M6256 2492 c-3 -3 -6 -61 -6 -129 l0 -123 25 0 25 0 0 124 c0 114 -2 124 -19 129 -11 3 -22 2 -25 -1z M6404 2487 c-2 -7 -3 -65 -2 -128 3 -109 4 -114 25 -117 21 -3 22 0 25 83 l3 87 59 -86 c46 -67 64 -86 83 -86 l24 0 -3 128 c-3 119 -4 127 -23 127 -18 0 -21 -8 -25 -80 l-5 -80 -58 83 c-57 80 -90 102 -103 69z M6700 2475 c0 -22 4 -25 35 -25 l35 0 0 -105 0 -105 25 0 25 0 0 105 0 105 36 0 c31 0 35 3 32 23 -3 21 -8 22 -95 25 l-93 3 0 -26z M6965 2438 c-4 -32 -4 -90 0 -128 l7 -70 79 0 c78 0 79 0 79 25 0 24 -3 25 -58 25 l-59 0 5 30 c4 28 7 30 48 30 37 0 44 3 44 20 0 17 -7 20 -45 20 -43 0 -45 1 -45 30 0 30 0 30 56 30 52 0 55 1 52 23 -3 21 -8 22 -80 23 l-76 1 -7 -59z M7220 2371 l0 -131 75 0 c73 0 75 1 75 25 0 23 -3 25 -50 25 l-49 0 -3 103 c-3 97 -4 102 -25 105 -23 3 -23 3 -23 -127z M7456 2492 c-3 -3 -6 -61 -6 -129 l0 -123 25 0 25 0 0 124 c0 114 -2 124 -19 129 -11 3 -22 2 -25 -1z M7649 2477 c-58 -39 -75 -105 -44 -171 30 -62 117 -85 191 -50 34 16 35 18 32 73 l-3 56 -50 0 c-44 0 -50 -3 -53 -22 -3 -20 1 -23 27 -23 24 0 31 -4 31 -20 0 -22 -27 -40 -60 -40 -12 0 -35 14 -52 30 -26 27 -30 36 -25 67 4 19 14 44 23 54 21 23 71 25 101 4 18 -13 22 -12 38 5 16 18 16 20 -16 39 -45 28 -98 27 -140 -2z M7920 2370 l0 -130 80 0 c79 0 80 0 80 25 0 24 -3 25 -55 25 -54 0 -55 0 -55 30 0 29 2 30 45 30 38 0 45 3 45 20 0 17 -7 20 -45 20 -43 0 -45 1 -45 29 0 29 2 30 53 33 44 3 52 6 52 23 0 18 -8 20 -77 23 l-78 3 0 -131z M8170 2370 l0 -130 25 0 c25 0 25 1 25 87 l0 86 58 -84 c46 -65 64 -85 85 -87 l27 -3 0 125 0 126 -25 0 c-23 0 -24 -2 -27 -81 l-3 -81 -59 86 c-46 67 -64 86 -83 86 -23 0 -23 0 -23 -130z M8467 2494 c-4 -4 -7 -16 -7 -26 0 -14 8 -18 40 -18 l40 0 0 -106 c0 -104 0 -105 23 -102 21 3 22 8 25 106 l3 102 35 0 c31 0 35 3 32 23 -3 21 -8 22 -93 25 -50 1 -94 0 -98 -4z M8734 2491 c-2 -2 -4 -60 -4 -128 l0 -123 86 0 c83 0 85 1 82 23 -3 19 -10 22 -60 25 -57 3 -58 4 -58 32 0 29 1 30 50 30 43 0 50 3 50 19 0 17 -8 20 -47 23 -44 3 -48 5 -51 31 -3 27 -3 27 53 27 53 0 56 1 53 23 -3 20 -8 22 -76 22 -41 0 -75 -2 -78 -4z M9125 2488 c-3 -8 -4 -66 -3 -129 3 -109 4 -114 25 -117 20 -3 22 2 25 45 l3 48 40 3 c79 7 113 82 60 132 -31 29 -141 42 -150 18z m116 -54 c19 -23 -1 -48 -40 -52 -30 -3 -31 -2 -31 32 0 33 2 36 29 36 16 0 34 -7 42 -16z M9437 2493 c-23 -37 -85 -216 -80 -229 4 -12 3 -15 -5 -10 -7 4 -12 2 -12 -3 0 -6 11 -11 24 -11 17 0 27 9 36 30 11 28 16 30 62 30 46 0 50 -2 59 -30 8 -22 17 -30 35 -30 13 0 24 6 24 13 -1 6 -22 64 -48 127 -38 92 -51 116 -69 118 -11 2 -23 -1 -26 -5z m41 -106 c16 -45 16 -44 -18 -43 -21 1 -29 5 -25 14 3 8 8 25 11 38 8 33 18 30 32 -9z M9660 2371 c0 -132 0 -132 23 -129 19 3 22 10 25 51 2 28 8 47 15 47 7 0 27 -23 45 -50 24 -38 38 -50 57 -50 14 0 25 3 25 6 0 3 -14 26 -31 50 l-31 46 23 24 c28 30 29 78 2 106 -15 15 -38 22 -87 25 l-66 6 0 -132z m118 50 c4 -26 -12 -41 -45 -41 -20 0 -23 5 -23 36 0 34 1 35 33 32 25 -2 33 -8 35 -27z M10001 2478 c-5 -13 -28 -68 -50 -122 -23 -55 -41 -103 -41 -108 0 -4 11 -8 24 -8 18 0 27 8 35 30 9 28 13 30 61 30 48 0 52 -2 61 -30 8 -22 17 -30 34 -30 31 0 28 18 -28 152 -34 82 -48 104 -65 106 -15 2 -25 -4 -31 -20z m47 -91 c16 -44 17 -42 -18 -42 -21 0 -29 4 -25 13 3 8 8 25 11 38 8 33 18 30 32 -9z M10423 2485 c-49 -21 -75 -69 -70 -129 4 -42 10 -55 41 -83 29 -27 44 -33 81 -33 25 0 61 7 80 14 34 15 35 17 35 70 l0 56 -56 0 c-47 0 -55 -3 -52 -17 2 -11 14 -19 31 -21 36 -4 37 -39 1 -52 -38 -15 -50 -12 -81 14 -34 29 -39 92 -9 125 22 24 75 28 106 9 16 -10 23 -10 36 4 16 15 15 18 -17 37 -39 24 -80 26 -126 6z M10680 2370 l0 -130 80 0 c79 0 80 0 80 25 0 24 -3 25 -55 25 -54 0 -55 0 -55 29 0 28 2 30 47 33 36 2 49 7 51 21 3 13 -4 17 -31 17 -51 0 -67 9 -67 36 0 22 4 24 56 24 52 0 55 1 52 23 -3 20 -9 22 -80 25 l-78 3 0 -131z M10945 2475 c-47 -46 -29 -92 48 -124 34 -15 47 -26 47 -40 0 -28 -43 -38 -75 -17 -26 17 -55 12 -55 -9 0 -21 47 -45 88 -45 109 0 128 129 24 155 -51 13 -66 37 -34 54 13 7 26 6 44 -3 16 -9 31 -10 42 -4 24 13 20 26 -14 43 -43 22 -87 19 -115 -10z M11157 2493 c-4 -3 -7 -15 -7 -25 0 -14 8 -18 40 -18 l40 0 0 -105 0 -105 25 0 25 0 0 105 0 105 35 0 c27 0 35 4 35 19 0 15 -11 19 -61 25 -79 8 -124 8 -132 -1z M11430 2371 l0 -131 25 0 26 0 -3 128 c-3 123 -4 127 -25 130 -23 3 -23 3 -23 -127z M11645 2490 c-51 -21 -91 -97 -78 -149 16 -66 64 -101 138 -101 37 0 52 6 81 33 31 28 37 41 42 85 5 60 -10 92 -61 122 -33 21 -87 25 -122 10z m114 -66 c55 -69 -11 -167 -89 -134 -36 15 -50 37 -50 78 0 47 34 82 80 82 30 0 43 -6 59 -26z M11920 2370 l0 -130 25 0 c25 0 25 1 25 88 l0 87 58 -87 c49 -76 61 -88 85 -88 l28 0 -3 128 c-3 122 -4 127 -25 130 -21 3 -22 0 -25 -84 l-3 -88 -54 80 c-60 86 -67 94 -93 94 -16 0 -18 -13 -18 -130z" fill="#50555C"/>
  </g>
</svg>